<?xml version="1.0" standalone="no"?>
<!DOCTYPE svg PUBLIC "-//W3C//DTD SVG 20010904//EN"
 "http://www.w3.org/TR/2001/REC-SVG-20010904/DTD/svg10.dtd">
<svg version="1.0" xmlns="http://www.w3.org/2000/svg"
 width="1472.000000pt" height="832.000000pt" viewBox="0 0 1472.000000 832.000000"
 preserveAspectRatio="xMidYMid meet">

<g transform="translate(0.000000,832.000000) scale(0.100000,-0.100000)"
stroke="none">
<path d="M7150 5593 c-33 -13 -109 -70 -174 -132 -131 -126 -321 -354 -741
-890 -88 -113 -186 -237 -217 -277 l-58 -72 -82 -7 c-87 -7 -407 -44 -618 -72
-74 -9 -205 -16 -320 -17 l-195 -1 -9 -26 c-21 -61 33 -129 123 -156 78 -22
269 -13 426 22 295 64 509 106 531 103 23 -3 10 -20 -129 -178 -447 -508 -769
-732 -1166 -810 -354 -70 -662 52 -792 314 -37 74 -43 97 -47 167 -6 103 9
173 59 274 95 193 295 335 536 381 116 22 113 21 113 39 0 30 -44 39 -133 26
-371 -51 -682 -312 -768 -645 -45 -173 -32 -355 36 -502 97 -212 248 -343 482
-422 l108 -37 180 1 c162 0 189 3 277 26 327 89 633 286 943 609 151 158 316
357 575 693 l75 98 199 -6 c109 -3 201 -7 203 -10 3 -3 -11 -71 -31 -153 -20
-81 -43 -195 -52 -253 -20 -127 -23 -389 -5 -478 84 -429 386 -694 921 -808
244 -52 639 -43 940 22 360 77 739 246 1015 452 185 139 215 231 42 130 -444
-259 -1103 -415 -1667 -394 -383 13 -615 93 -796 271 -133 130 -181 255 -191
490 -6 149 13 330 53 497 13 57 26 113 29 125 4 19 10 21 40 16 72 -12 100 56
45 107 l-30 28 16 53 c8 30 65 204 125 387 109 333 207 663 234 794 22 102 20
183 -5 208 -19 19 -67 25 -100 13z m45 -94 c10 -31 -61 -169 -129 -251 -68
-82 -128 -175 -200 -309 -82 -155 -121 -261 -222 -602 l-37 -128 -81 7 c-45 4
-120 8 -168 8 -49 0 -88 2 -88 4 0 3 57 85 128 183 207 291 336 478 402 584
194 311 267 421 312 470 54 59 73 67 83 34z"/>
<path d="M8569 4906 c-96 -34 -172 -115 -210 -222 -16 -47 -20 -77 -17 -151 5
-115 37 -186 114 -248 l51 -42 -86 -179 c-199 -415 -374 -706 -457 -761 -32
-21 -92 -22 -105 -2 -42 66 40 357 213 755 68 158 73 174 73 241 0 62 -3 75
-24 97 -45 48 -141 58 -198 21 -35 -23 -70 -93 -96 -190 -27 -100 -63 -189
-173 -434 -124 -275 -214 -420 -290 -471 -42 -28 -109 -34 -124 -10 -41 65 43
361 205 725 37 83 74 178 83 212 15 56 15 67 2 105 -19 55 -67 88 -127 88
-100 0 -147 -53 -190 -213 -13 -50 -57 -191 -98 -312 -87 -258 -117 -399 -117
-540 0 -115 19 -174 71 -217 36 -31 119 -51 170 -42 118 22 243 138 336 314
40 76 80 140 85 140 4 0 -2 -33 -12 -72 -26 -97 -22 -248 7 -297 32 -55 67
-75 140 -79 80 -5 131 17 204 90 106 106 221 294 426 698 90 177 146 276 157
278 24 5 127 -48 140 -71 19 -36 0 -97 -80 -265 -44 -92 -87 -187 -97 -212
-53 -140 -71 -349 -36 -425 22 -49 44 -69 95 -85 130 -42 302 64 397 244 l37
69 7 -54 c29 -214 185 -323 350 -245 80 38 179 154 264 309 24 42 46 77 51 77
4 0 4 -17 -1 -37 -28 -127 -19 -262 20 -310 53 -63 155 -82 235 -43 103 49
233 232 471 660 154 277 206 333 325 347 104 12 169 -23 189 -102 21 -83 -18
-169 -100 -221 -70 -44 -39 -65 49 -32 100 37 170 95 222 182 28 46 39 164 21
218 -40 123 -195 199 -333 163 -76 -19 -118 -44 -186 -109 -87 -83 -147 -180
-352 -566 -157 -296 -224 -384 -302 -397 -56 -8 -72 16 -65 96 10 119 67 290
206 618 44 103 82 205 86 226 25 133 -75 214 -275 224 -153 8 -306 -38 -449
-135 -105 -71 -224 -214 -291 -350 -28 -56 -80 -202 -80 -223 0 -6 -9 -23 -20
-38 -10 -15 -49 -80 -85 -145 -107 -192 -164 -256 -228 -256 -12 0 -28 5 -35
12 -36 36 12 199 133 453 131 276 138 299 111 357 -23 47 -78 85 -218 148 -65
29 -118 56 -118 60 0 4 22 54 49 111 89 190 116 332 77 408 -31 60 -119 85
-197 57z m114 -159 c-3 -45 -57 -232 -88 -302 l-22 -50 -19 35 c-28 52 -27
198 3 262 30 65 66 100 101 96 25 -3 27 -6 25 -41z m1314 -459 c28 -26 31 -78
6 -100 -10 -9 -36 -22 -58 -29 -52 -19 -97 -65 -120 -125 -103 -276 -244 -551
-342 -671 -74 -91 -166 -97 -186 -12 -18 75 57 363 142 543 73 156 197 310
302 374 87 53 211 63 256 20z"/>
<path d="M7022 2243 c37 -2 100 -2 140 0 40 1 10 3 -67 3 -77 0 -110 -1 -73
-3z"/>
</g>
</svg>
